<svg id="Capa_1" data-name="Capa 1" xmlns="http://www.w3.org/2000/svg" viewBox="0 0 109.06 102.38"><defs><style>.cls-1{fill:#da2d26;fill-rule:evenodd;}</style></defs><title>sad</title><path class="cls-1" d="M412.71,12.09C400.91,2.64,384.37-.13,368.92,1.23c-11.21,1.35-22.38,4.62-31.15,10.72-29.29,20.37-21.47,66.65,7.73,83.95,14.82,9.1,34.37,9.77,49.92,2.16S423,74.69,427.24,57.37C430.84,40.59,425.86,22.63,412.71,12.09ZM389.55,28.62h-0.9c-2.17,0-4.34-.06-6.52,0-3,.09-5.19,1.21-5.3,4.9-0.08,2.68-.13,8.87-0.13,8.87l10,0h2.42c-0.58,4.28-1.13,8.39-1.69,12.55l-10.72,0-0.09,31.35-13.13,0,0.09-31.4-10.76,0,0-12.49,10.81,0V41.42c0-2.51,0-5,0-7.53a32,32,0,0,1,.41-4.79,13.94,13.94,0,0,1,5.7-9.32,16.46,16.46,0,0,1,9.45-2.86c2.23,0,4.47.07,6.7,0.18,1.21,0.06,2.43.23,3.59,0.35Z" transform="translate(-319.31 -0.91)"/></svg>