<svg id="Capa_1" data-name="Capa 1" xmlns="http://www.w3.org/2000/svg" viewBox="0 0 109.06 102.38"><defs><style>.cls-1{fill:#da2d26;fill-rule:evenodd;}</style></defs><title>asd</title><path class="cls-1" d="M708.94,28.51c-5.13-.8-24.43-0.79-29.79-0.21s-8.8,3.8-9.61,9c-0.87,5.52-.76,26.15-0.08,30.28a9.85,9.85,0,0,0,7.5,8.49c4.52,1.27,26.33,1,31.21.53,5.31-.56,8.84-3.8,9.65-9S718.57,43,718,38.1C717.48,32.82,714.22,29.32,708.94,28.51ZM693.6,67.83a15.38,15.38,0,1,1,15.6-15.32A15.44,15.44,0,0,1,693.6,67.83Zm16.23-27.71a3.6,3.6,0,1,1,3.65-3.58A3.59,3.59,0,0,1,709.83,40.12Zm-6.11,12.39a10,10,0,1,1-10-10A10,10,0,0,1,703.72,52.51ZM732,13C720.23,3.55,703.69.78,688.23,2.14,677,3.48,665.84,6.75,657.08,12.85c-29.29,20.37-21.47,66.65,7.73,83.95,14.82,9.1,34.37,9.77,49.92,2.16s27.55-23.36,31.82-40.69C750.16,41.49,745.18,23.53,732,13Zm-9,56.87c-1.82,6.82-6.32,10.87-13.29,12-5.27.83-28.73,0.92-33.5-.31-6.89-1.78-11-6.22-12.12-13.12-0.82-5.05-1-28.58.41-33.68,1.89-6.63,6.35-10.54,13.13-11.61,5.94-.94,22.82-0.65,29.93-0.25a16.86,16.86,0,0,1,11.09,4.5,15.86,15.86,0,0,1,4.86,10.26C724,42.32,724.38,64.62,723,69.86Z" transform="translate(-638.63 -1.81)"/></svg>