<svg id="Capa_1" data-name="Capa 1" xmlns="http://www.w3.org/2000/svg" viewBox="0 0 109.06 102.38"><defs><style>.cls-1{fill:#da2d26;fill-rule:evenodd;}</style></defs><title>rrss</title><path class="cls-1" d="M93.39,11.18C81.6,1.74,65.06-1,49.6.32,38.39,1.67,27.22,4.94,18.45,11-10.84,31.41-3,77.7,26.18,95c14.82,9.1,34.37,9.77,49.92,2.16s27.55-23.36,31.82-40.69C111.53,39.68,106.55,21.72,93.39,11.18ZM39.7,72.78l-11.51,0,0.1-34.34,11.51,0Zm-5.64-39a6.45,6.45,0,0,1-6.65-6.21,6.44,6.44,0,0,1,6.69-6.17,6.45,6.45,0,0,1,6.65,6.21A6.45,6.45,0,0,1,34.06,33.74ZM82.77,72.9l-11.49,0,0-16.7c0-4-.06-9.1-5.95-9.12s-6.91,4.31-6.93,8.8l0,17-11.49,0L47,38.46l11,0v4.7h0.15c1.54-2.7,5.31-5.54,10.9-5.52,11.64,0,13.77,7.16,13.74,16.4Z"/></svg>