<svg id="Capa_1" data-name="Capa 1" xmlns="http://www.w3.org/2000/svg" viewBox="0 0 109.06 102.38"><defs><style>.cls-1{fill:#da2d26;fill-rule:evenodd;}</style></defs><title>asdasdasd</title><path class="cls-1" d="M576.5,12.55C564.7,3.11,548.16.34,532.7,1.69,521.5,3,510.32,6.31,501.55,12.41c-29.29,20.37-21.47,66.65,7.73,83.95,14.82,9.1,34.37,9.77,49.92,2.16S586.76,75.15,591,57.83C594.63,41.05,589.65,23.09,576.5,12.55Zm-3.77,21.86A26.09,26.09,0,0,1,567.89,39a0.45,0.45,0,0,0-.22.42,36.9,36.9,0,0,1-.27,5.9,39.17,39.17,0,0,1-3.46,11.84,38.39,38.39,0,0,1-7.2,10.47,35.4,35.4,0,0,1-18.27,10.13,39,39,0,0,1-7.39.86,37.46,37.46,0,0,1-21.23-5.77l-0.31-.21a26.73,26.73,0,0,0,13.28-1.8,26,26,0,0,0,6.32-3.67,13.31,13.31,0,0,1-12.32-9.27,13.23,13.23,0,0,0,5.68-.16,0.94,0.94,0,0,0,.19-0.09,13.24,13.24,0,0,1-8.6-6.13,12.94,12.94,0,0,1-1.92-7.09,13,13,0,0,0,5.9,1.64A13.38,13.38,0,0,1,512.64,38a13.23,13.23,0,0,1,1.45-9.64,37.91,37.91,0,0,0,27.34,14c-0.07-.52-0.16-1-0.21-1.45a13,13,0,0,1,2-8.69,12.73,12.73,0,0,1,9-6,12.89,12.89,0,0,1,11.61,3.74,0.68,0.68,0,0,0,.71.21,27,27,0,0,0,7.73-3l0.18-.09h0.09a13.64,13.64,0,0,1-5.7,7.23,25.5,25.5,0,0,0,7.4-2l0.05,0.06C573.74,33.09,573.25,33.77,572.72,34.41Z" transform="translate(-483.1 -1.37)"/></svg>