<svg id="Capa_1" data-name="Capa 1" xmlns="http://www.w3.org/2000/svg" viewBox="0 0 109.06 102.38"><defs><style>.cls-1{fill:#da2d26;fill-rule:evenodd;}</style></defs><title>sadasd</title><path class="cls-1" d="M204.06,40.71l18.86,9.85L204,60.25ZM265,56.9C260.7,74.23,248.7,90,233.14,97.59s-35.1,6.95-49.92-2.16c-29.2-17.29-37-63.58-7.73-83.95,8.77-6.1,19.94-9.37,31.15-10.72,15.46-1.36,32,1.41,43.79,10.86C263.59,22.17,268.57,40.13,265,56.9ZM240.31,35.55a7.28,7.28,0,0,0-4.57-4.4c-3.73-1.35-36.15-1.6-46.63-.51A7.57,7.57,0,0,0,184,33.31c-3.9,4.54-3.37,27.68-1.37,33.21a7.05,7.05,0,0,0,4.66,4.53c5.15,1.7,45.41,1.83,49.33-.19a7.11,7.11,0,0,0,3.3-3.29C242.53,62.07,242.51,41.27,240.31,35.55Z" transform="translate(-157.04 -0.45)"/></svg>