<svg xmlns="http://www.w3.org/2000/svg" xmlns:xlink="http://www.w3.org/1999/xlink" viewBox="0 0 174.39 448.89"><defs><style>.cls-1{isolation:isolate;}.cls-2,.cls-9{fill:#f2914b;stroke:#f2914b;}.cls-10,.cls-11,.cls-12,.cls-2,.cls-3,.cls-4,.cls-5,.cls-8,.cls-9{stroke-linecap:round;stroke-linejoin:round;}.cls-2{stroke-width:1.82px;}.cls-10,.cls-11,.cls-12,.cls-3,.cls-5,.cls-8{fill:none;}.cls-11,.cls-12,.cls-3,.cls-4,.cls-5,.cls-8{stroke:#575756;}.cls-3,.cls-4{stroke-width:3.65px;}.cls-4{fill:#fff;}.cls-5{stroke-width:3px;}.cls-6{fill:#575756;}.cls-7{fill:url(#Degradado_sin_nombre_4);}.cls-8{stroke-width:8px;mix-blend-mode:multiply;}.cls-12,.cls-9{stroke-width:3px;}.cls-10{stroke:#fff;stroke-width:6px;}.cls-11{stroke-width:4px;}</style><linearGradient id="Degradado_sin_nombre_4" x1="515.15" y1="471.18" x2="638.68" y2="301.16" gradientUnits="userSpaceOnUse"><stop offset="0" stop-color="#da2d26"/><stop offset="1" stop-color="#f2914b"/></linearGradient></defs><title>Ilustracion error 404</title><g class="cls-1"><g id="Capa_1" data-name="Capa 1"><path class="cls-2" d="M632,135c-1.12-14.74-32.72-19.33-32.72-19.33s-0.75,33.46,11.2,37.74C620.28,156.93,632.83,146.19,632,135Z" transform="translate(-486.09 -47.11)"/><path class="cls-3" d="M635.43,127.75C632.77,113.2,600.86,112,600.86,112s2.77,33.35,15.1,36.36C626.1,150.79,637.45,138.79,635.43,127.75Z" transform="translate(-486.09 -47.11)"/><path class="cls-2" d="M531.61,100.14c8.81-11.87,38,1.12,38,1.12S552.37,130,540,127.2C529.8,124.93,524.92,109.16,531.61,100.14Z" transform="translate(-486.09 -47.11)"/><path class="cls-4" d="M646.62,106.68c-11.82-13.27-45.57,5.21-45.57,5.21s23.67,32.5,38.28,27.94C651.35,136.09,655.6,116.76,646.62,106.68Z" transform="translate(-486.09 -47.11)"/><line class="cls-5" x1="124.2" y1="66.85" x2="146.66" y2="73.97"/><path class="cls-3" d="M536.05,93c11.52-9.27,36.48,10.64,36.48,10.64S548.64,127,537.34,121.25C528.06,116.49,527.3,100,536.05,93Z" transform="translate(-486.09 -47.11)"/><path class="cls-4" d="M541.34,69.69c17.62-2.32,31.09,33.72,31.09,33.72s-39.15,9.14-47.24-3.86C518.54,88.86,528,71.45,541.34,69.69Z" transform="translate(-486.09 -47.11)"/><line class="cls-5" x1="78" y1="51.83" x2="56.34" y2="42.54"/><path id="_Trazado_" data-name="&lt;Trazado&gt;" class="cls-2" d="M561.69,164.69l23,7.89a2.68,2.68,0,0,0,3.42-1.67l4.62-13.43-28.06-9.65L560,161.26A2.71,2.71,0,0,0,561.69,164.69Z" transform="translate(-486.09 -47.11)"/><path class="cls-6" d="M612,85.78v0c0-.09,0-0.2.08-0.29a0.17,0.17,0,0,0,0-.09,2,2,0,0,0,0-.36,0.34,0.34,0,0,1,0-.1,2,2,0,0,0-.06-0.26s0-.08,0-0.11,0-.05,0-0.08l-7.71-23.24a2.12,2.12,0,0,0-1.3-1.32,2.06,2.06,0,0,0-1.83.24L580.76,73.7l-0.07.05-0.1.06-0.21.17a0.34,0.34,0,0,0-.07.07c-0.08.09-.14,0.19-0.22,0.29a0.17,0.17,0,0,1-.05.08,1.31,1.31,0,0,0-.12.28v0l-20.33,59.12a2.09,2.09,0,0,0,4,1.36l19.65-57.15,10.09,3.47-19.61,57a2.09,2.09,0,0,0,4,1.36l19.61-57,10.09,3.47-19.61,57a2.09,2.09,0,0,0,4,1.36l20.29-59h0ZM586.61,74.84l14.59-9.71,5.53,16.65-20.13-6.92v0Z" transform="translate(-486.09 -47.11)"/><path class="cls-6" d="M557.52,163.23l17.82,6.13a7.52,7.52,0,0,0,9.55-4.66l3.73-10.85a2.1,2.1,0,0,0-1.3-2.66l-28.06-9.65a2.1,2.1,0,0,0-2.66,1.3l-3.74,10.87A7.49,7.49,0,0,0,557.52,163.23Zm2.34-17.06L584,154.46l-3.06,8.89a3.34,3.34,0,0,1-4.24,2.07l-17.82-6.13a3.34,3.34,0,0,1-2.07-4.24Z" transform="translate(-486.09 -47.11)"/><path class="cls-7" d="M503.42,317H660.48l-32,165.82C627,490.49,620.64,496,613.31,496H554.07c-7.2,0-13.45-5.33-15.06-12.84Z" transform="translate(-486.09 -47.11)"/><path class="cls-8" d="M491.59,313H648.65l-32,165.82c-1.48,7.68-7.8,13.18-15.13,13.18H542.24c-7.2,0-13.45-5.33-15.06-12.84Z" transform="translate(-486.09 -47.11)"/><path id="_Trazado_2" data-name="&lt;Trazado&gt;" class="cls-9" d="M543.77,273.19l19.39-12.65a2.55,2.55,0,0,0,.75-3.55l-7.4-11.35L532.8,261.11l7.4,11.35A2.59,2.59,0,0,0,543.77,273.19Z" transform="translate(-486.09 -47.11)"/><path class="cls-6" d="M513.49,187l0,0c0-.07-0.13-0.15-0.17-0.23a0.17,0.17,0,0,0-.07-0.06,1.93,1.93,0,0,0-.27-0.22,0.32,0.32,0,0,1-.08,0l-0.23-.11-0.1,0-0.07,0-22-7.82a2,2,0,0,0-1.75.2,2,2,0,0,0-.89,1.52l-1.72,23.29s0,0,0,.08,0,0.08,0,.11,0,0.18,0,.26a0.32,0.32,0,0,0,0,.1c0,0.12.06,0.22,0.09,0.34a0.17,0.17,0,0,1,0,.09,1.25,1.25,0,0,0,.14.25l0,0L519,254.64a2,2,0,0,0,3.34-2.18l-31.48-48.28,8.52-5.56,31.42,48.18a2,2,0,0,0,3.34-2.18l-31.42-48.18,8.52-5.56,31.42,48.18A2,2,0,0,0,546,236.9L513.46,187Zm-23.11,12.69L491.63,183l15.77,5.6-17,11.09v0Z" transform="translate(-486.09 -47.11)"/><path class="cls-6" d="M539.83,273.41l15.06-9.82a7.17,7.17,0,0,0,2.09-9.92l-6-9.16a2,2,0,0,0-2.76-.58l-23.71,15.46a2,2,0,0,0-.58,2.76l6,9.18A7.15,7.15,0,0,0,539.83,273.41Zm-11.46-11.76,20.38-13.29,4.9,7.51a3.18,3.18,0,0,1-.93,4.4l-15.06,9.82a3.18,3.18,0,0,1-4.4-.93Z" transform="translate(-486.09 -47.11)"/><path id="_Trazado_3" data-name="&lt;Trazado&gt;" class="cls-9" d="M596.93,292.1l23.06,2a2.55,2.55,0,0,0,2.78-2.33l1.18-13.5-28.2-2.46-1.18,13.5A2.59,2.59,0,0,0,596.93,292.1Z" transform="translate(-486.09 -47.11)"/><path class="cls-6" d="M625.84,206.84v0c0-.09,0-0.2,0-0.29a0.17,0.17,0,0,0,0-.09,1.93,1.93,0,0,0-.08-0.34,0.32,0.32,0,0,1,0-.09,1.93,1.93,0,0,0-.11-0.23l-0.06-.09s0,0,0-.07L613,185.87a2,2,0,0,0-1.5-.92,2,2,0,0,0-1.64.65l-15.72,17.27,0,0.06L594,203l-0.15.21a0.32,0.32,0,0,0-.05.08c-0.05.11-.08,0.21-0.14,0.32a0.17,0.17,0,0,1,0,.09,1.25,1.25,0,0,0,0,.28v0l-5.18,59.4a2,2,0,0,0,4,.35l5-57.42,10.13,0.88-5,57.31a2,2,0,0,0,4,.35l5-57.31,10.13,0.88-5,57.31a2,2,0,0,0,4,.35l5.17-59.3h0Zm-26-4.27,11.27-12.35,9,14.14-20.22-1.76v0Z" transform="translate(-486.09 -47.11)"/><path class="cls-6" d="M593.27,291.08l17.91,1.56a7.17,7.17,0,0,0,7.76-6.52l1-10.9a2,2,0,0,0-1.81-2.16l-28.2-2.46a2,2,0,0,0-2.16,1.81l-1,10.92A7.15,7.15,0,0,0,593.27,291.08Zm-1.77-16.33,24.24,2.11L615,285.79a3.18,3.18,0,0,1-3.44,2.89l-17.91-1.56a3.18,3.18,0,0,1-2.89-3.44Z" transform="translate(-486.09 -47.11)"/><line class="cls-10" x1="34.22" y1="303.67" x2="44.28" y2="348.64"/><line class="cls-10" x1="46.32" y1="359.57" x2="52.16" y2="384.64"/><line class="cls-11" x1="69.91" y1="160.89" x2="84.91" y2="160.89"/><line class="cls-11" x1="77.91" y1="153.89" x2="77.91" y2="166.89"/><line class="cls-11" x1="71.87" y1="12.46" x2="83.58" y2="3.09"/><line class="cls-11" x1="73.74" y1="2" x2="81.86" y2="12.15"/><line class="cls-12" x1="18.13" y1="250.18" x2="25.54" y2="244.24"/><line class="cls-12" x1="19.31" y1="243.55" x2="24.46" y2="249.98"/><line class="cls-12" x1="155.13" y1="212.18" x2="162.54" y2="206.24"/><line class="cls-12" x1="156.31" y1="205.55" x2="161.46" y2="211.98"/></g></g></svg>